# xmcd
#
# Track frame offsets: 
#        150
#        16779
#        34498
#        47738
#        64145
#        79352
#        92298
#        111683
#        126845
#        144349
#        163104
#        181765
#        198378
#        216427
#
# Disc length: 3115 seconds
#
# Revision: 4
# Processed by: cddbd v1.5.2PL0 Copyright (c) Steve Scherf et al.
# Submitted via: ExactAudioCopyFreeDBPlugin 1.0
#
DISCID=c80c290e
DTITLE=Various Artist - Country Motel
DYEAR=1997
DGENRE=Country
TTITLE0=Joe Nichols - In Spite Of Myself
TTITLE1=Brian Will - Summer Breeze
TTITLE2=Billy Foster - She's Every Woman
TTITLE3=Charlie Stone - This Woman This Man
TTITLE4=Clinton Gregory - Who Needs It
TTITLE5=Doug Wayne - Yesterday
TTITLE6=Alan White - I Swear
TTITLE7=Harry Lamb - Sweet Baby James
TTITLE8=Western Flyer - Wish You Were Here
TTITLE9=Don Cox - Your Part
TTITLE10=Mag Kyle - When You Say Nothing At All
TTITLE11=Al Anderson - Without Your Love
TTITLE12=Tammy Rogers - Let's Leave It Like That
TTITLE13=Shelby Lynne - I'm Not The One
EXTD=
EXTT0=
EXTT1=
EXTT2=
EXTT3=
EXTT4=
EXTT5=
EXTT6=
EXTT7=
EXTT8=
EXTT9=
EXTT10=
EXTT11=
EXTT12=
EXTT13=
PLAYORDER=
